<svg width="96" height="148" viewBox="0 0 96 148" fill="none" xmlns="http://www.w3.org/2000/svg">
<g clip-path="url(#clip0_123_2)">
<mask id="mask0_123_2" style="mask-type:luminance" maskUnits="userSpaceOnUse" x="0" y="0" width="571" height="150">
<path d="M570.635 0H0V150H570.635V0Z" fill="white"/>
</mask>
<g mask="url(#mask0_123_2)">
<path d="M74.4712 148.545L57.1431 119.577C57.1431 119.577 56.614 118.915 56.614 117.857V117.196V115.741V64.1534H50.0003V117.857V119.444C50.5294 119.974 61.5082 138.624 61.5082 138.624H34.3918C34.3918 138.624 45.3706 119.974 45.8997 119.444V117.857V64.1534H39.286V115.741V117.196V117.857C39.286 118.915 38.7569 119.577 38.7569 119.577L21.4288 148.545H74.4712Z" fill="#996600"/>
<path d="M69.0473 26.5873C69.0473 26.5873 72.3542 13.0952 60.5817 4.2328C60.5817 4.2328 55.9521 0 47.0897 0C39.1532 0 34.5235 4.2328 34.5235 4.2328C23.8093 11.6402 26.587 26.5873 26.587 26.5873H69.0473Z" fill="#996600"/>
<path d="M27.91 30.291H67.8571C68.1217 29.4974 68.3862 28.7037 68.6508 27.9101H27.1164C27.3809 28.836 27.6455 29.6296 27.91 30.291Z" fill="#996600"/>
<path d="M67.1952 31.746H28.5709C28.9677 32.5397 29.3645 33.3333 29.8936 34.127H65.8725C66.4016 33.3333 66.7984 32.5397 67.1952 31.746Z" fill="#996600"/>
<path d="M32.5396 37.3016H63.3597C63.8888 36.7725 64.4179 36.1111 64.947 35.4497H30.9523C31.3491 36.1111 32.0105 36.7725 32.5396 37.3016Z" fill="#996600"/>
<path d="M35.8462 40.2116H59.9203C60.5816 39.8148 61.1107 39.2857 61.7721 38.7566H33.9943C34.6557 39.2857 35.1848 39.6825 35.8462 40.2116Z" fill="#996600"/>
<path d="M39.1529 42.0635C41.7984 43.254 44.7084 43.9153 47.8831 43.9153C50.9254 43.9153 53.9677 43.254 56.6132 42.0635H39.1529Z" fill="#996600"/>
<path d="M89.2857 44.9735H56.6138C56.6138 44.9735 53.5714 44.9735 51.1905 46.5608C49.3386 47.8836 48.0159 50.7936 47.8836 50.9259C47.8836 50.7936 46.4286 47.7513 44.5767 46.5608C42.1958 44.9735 39.1534 44.9735 39.1534 44.9735H6.48148L0 55.4233H29.8942C29.8942 55.4233 30.8201 55.4233 31.3492 55.5556C32.2751 55.6878 33.7302 56.2169 35.4497 57.2751C37.6984 58.8624 38.2275 59.6561 38.8889 60.1852C39.1534 60.4497 39.8148 61.3757 39.8148 61.3757H47.0899H47.8836H50.3968H56.0847C56.0847 61.3757 56.746 60.4497 57.0106 60.1852C57.5397 59.6561 58.2011 58.8624 60.4497 57.2751C62.037 56.0847 63.6243 55.6878 64.5503 55.5556C65.0794 55.4233 66.0053 55.4233 66.0053 55.4233H95.8995L89.2857 44.9735Z" fill="#003366"/>
<path d="M3.30688 58.5979V107.672C3.30688 107.672 3.30688 108.201 3.30688 108.333C3.30688 108.862 3.30688 109.392 3.43916 109.788C3.96826 115.079 5.55556 118.915 8.73017 124.074C13.4921 132.143 22.2222 137.698 22.2222 137.698L26.3228 131.217C26.3228 131.217 20.7672 128.307 16.2698 121.429C15.3439 120.106 14.418 118.783 13.8889 117.593C13.3598 116.402 12.8307 115.476 12.5661 114.418C12.3016 113.624 12.1693 112.963 11.9048 112.302C11.6402 111.376 11.6402 110.714 11.5079 109.788C11.5079 109.524 11.5079 108.201 11.5079 108.201V107.937V58.5979H3.30688Z" fill="#003366"/>
<path d="M15.7406 58.5979V108.069C15.7406 108.069 15.7406 108.333 15.7406 108.466C15.7406 108.73 15.7406 109.127 15.8729 109.392C15.8729 109.524 15.8729 109.788 16.0052 109.921C16.1374 110.714 16.2697 111.376 16.6665 112.434C17.1956 114.153 18.2538 116.138 19.7089 118.386C23.4126 124.339 28.7036 126.984 28.7036 126.984L32.8041 120.635C32.8041 120.635 31.4814 119.841 29.7618 118.254C28.7036 117.196 27.3808 115.873 26.1904 114.153C25.1321 112.434 24.4708 110.714 24.0739 109.524C23.8094 108.466 23.6771 107.54 23.6771 107.011C23.6771 106.614 23.6771 106.349 23.6771 106.349V58.5979H15.7406Z" fill="#003366"/>
<path d="M92.5922 58.5979V107.672C92.5922 107.672 92.5922 108.201 92.5922 108.333C92.5922 108.862 92.5922 109.392 92.4599 109.788C91.9308 115.079 90.3435 118.915 87.1689 124.074C82.407 132.011 73.8092 137.566 73.8092 137.566L69.7086 130.952C69.7086 130.952 75.2642 128.042 79.7615 121.164C80.6875 119.841 81.6134 118.519 82.1425 117.328C82.6716 116.138 83.2007 115.212 83.4652 114.153C83.7298 113.36 83.8621 112.698 84.1266 112.037C84.3912 111.111 84.3912 110.45 84.5234 109.524C84.5234 109.259 84.5234 107.937 84.5234 107.937V107.672V58.5979H92.5922Z" fill="#003366"/>
<path d="M80.1585 58.5979V108.069C80.1585 108.069 80.1585 108.333 80.1585 108.466C80.1585 108.73 80.1585 109.127 80.0262 109.392C80.0262 109.524 80.0262 109.788 79.8939 109.921C79.7617 110.714 79.6294 111.376 79.2326 112.434C78.7035 114.153 77.6453 116.138 76.1902 118.386C72.6188 124.339 67.3278 126.984 67.3278 126.984L63.2273 120.635C63.2273 120.635 64.55 119.841 66.2696 118.254C67.3278 117.196 68.6505 115.873 69.841 114.153C70.8992 112.434 71.5606 110.714 71.9574 109.524C72.222 108.466 72.3542 107.54 72.3542 107.011C72.3542 106.614 72.3542 106.349 72.3542 106.349V58.5979H80.1585Z" fill="#003366"/>
</g>
</g>
<defs>
<clipPath id="clip0_123_2">
<rect width="96" height="148" fill="white"/>
</clipPath>
</defs>
</svg>
