<svg xmlns="http://www.w3.org/2000/svg" viewBox="0 0 24 24" fill="none">
  <path d="M6 3H14L19 8V20C19 20.55 18.55 21 18 21H6C5.45 21 5 20.55 5 20V4C5 3.45 5.45 3 6 3Z" fill="#6f6e6b"/>
  <path d="M14 3V8H19" fill="#8a8884"/>
  <path d="M8 16.8V12.1H9.9C10.8 12.1 11.3 12.6 11.3 13.4C11.3 14.2 10.8 14.7 9.9 14.7H9.2V16.8H8ZM9.2 13.8H9.7C10 13.8 10.2 13.6 10.2 13.4C10.2 13.1 10 12.9 9.7 12.9H9.2V13.8ZM12.1 16.8V12.1H13.7C15 12.1 15.9 13 15.9 14.4C15.9 15.9 15 16.8 13.7 16.8H12.1ZM13.3 15.9H13.6C14.2 15.9 14.7 15.4 14.7 14.4C14.7 13.5 14.2 13 13.6 13H13.3V15.9ZM16.8 16.8V12.1H20V13H18V14H19.7V14.9H18V16.8H16.8Z" fill="#f7f4ef"/>
</svg>
