<svg xmlns="http://www.w3.org/2000/svg" viewBox="0 0 24 24" role="img" aria-label="Open folder">
  <title>Open folder</title>
  <!-- Lucide folder-open icon, light-line variant for dark browser tabs. -->
  <g
    fill="none"
    stroke="#fdfdfc"
    stroke-width="2"
    stroke-linecap="round"
    stroke-linejoin="round"
  >
    <path d="m6 14 1.5-2.9A2 2 0 0 1 9.24 10H20a2 2 0 0 1 1.94 2.5l-1.54 6A2 2 0 0 1 18.46 20H4a2 2 0 0 1-2-2V5a2 2 0 0 1 2-2h3.9a2 2 0 0 1 1.69.9l.81 1.2A2 2 0 0 0 12.1 6H20a2 2 0 0 1 2 2v2" />
  </g>
</svg>
